<svg version="1.2" xmlns="http://www.w3.org/2000/svg" viewBox="0 0 800 800" width="800" height="800">
	<title>New Project</title>
	<style>
		.s0 { fill: #00a200 } 
		.s1 { fill: #ffffff } 
	</style>
	<path id="Layer 2" fill-rule="evenodd" class="s0" d="m187 0h426c103.3 0 187 83.7 187 187v426c0 103.3-83.7 187-187 187h-426c-103.3 0-187-83.7-187-187v-426c0-103.3 83.7-187 187-187z"/>
	<path id="g.ai" class="s1" aria-label="g.ai"  d="m153.3 298.9q5.9 0 13 1.1 7 1.1 14.1 3 7 1.8 13.7 4.8 6.7 2.6 11.5 5.5v-9.6h56.7v200.3q0 20.8-5.1 37.9-5.2 16.7-17.5 28.6-12.2 11.5-33 17.8-20.4 6.3-51.6 6.3-15.9 0-28.9-1.9-13-2.2-24.1-5.5-10.8-3.8-20.1-8.2-9.2-4.8-17.8-10l20.8-43.4q9.3 7.4 18.9 12.2 10 4.5 19.3 7.4 9.7 2.6 17.8 3.7 8.2 1.2 14.1 1.2 16.3 0 26-3.8 10-3.7 15.2-9.6 5.6-6.3 7.4-14.5 1.9-8.1 1.9-17.4v-16q-4.8 3-11.5 5.6-6.7 2.6-13.7 4.8-7.1 1.9-14.1 3-7.1 1.1-13 1.1-21.2 0-39.7-8.2-18.2-8.1-32.3-21.8-13.7-14.1-21.9-32.7-7.8-18.5-7.8-39.7 0-21.1 7.8-39.7 8.2-18.5 21.9-32.3 14.1-14.1 32.3-21.9 18.5-8.1 39.7-8.1zm0 49.7q-10.8 0-20.4 4.1-9.3 4.1-16.4 11.1-6.6 7.1-10.7 16.7-4.1 9.6-4.1 20.4 0 10.8 4.1 20.4 4.1 9.3 10.7 16.3 7.1 7.1 16.4 11.2 9.6 4 20.4 4 10.7 0 20-3.7 9.3-4 16.3-11.1 7.1-7 11.2-16.3 4.4-9.3 4.8-19.7v-2.2q-0.4-10.8-4.8-20-4.1-9.3-11.2-16-7-7-16.3-11.1-9.3-4.1-20-4.1zm196.2 86.8q13.4 0 22.7 9.3 9.2 9.3 9.2 22.6 0 13.4-9.2 22.7-9.3 9.2-22.7 9.2-6.6 0-12.6-2.2-5.5-2.6-10-7-4.1-4.5-6.7-10.1-2.6-5.9-2.6-12.6 0-6.7 2.3-12.2 2.6-6 7-10 4.5-4.5 10-7.1 6-2.6 12.6-2.6zm174.8-136.9q5.9 0 13 1.1 7 1.1 14.1 3.4 7 1.8 13.3 4.4 6.7 2.6 11.5 5.6v-9.3h56.8v192.2h-56.8v-6.7q-4.8 3-11.5 5.6-6.3 2.6-13.3 4.4-7.1 1.9-14.1 3-7.1 1.1-13 1.1-21.2 0-39.7-8.2-18.6-8.1-32.7-21.8-13.7-14.1-21.8-32.7-8.2-18.5-8.2-39.7 0-21.1 7.8-39.7 8.1-18.9 21.9-32.6 14.1-14.1 32.6-21.9 18.9-8.2 40.1-8.2zm0 50.5q-10.8 0-20.4 4-9.7 4.1-16.7 11.2-7.1 7-11.1 16.7-4.1 9.2-4.1 20 0 10.8 4.1 20.4 4 9.7 11.1 16.7 7 7.1 16.7 11.1 9.6 4.1 20.4 4.1 10.8 0 20-4.1 9.3-4 16.4-10.7 7-7.1 11.1-16.3 4.4-9.3 4.4-19.7v-2.6q0-10.8-4.4-19.7-4.1-9.2-11.1-16.3-7.1-7-16.4-10.8-9.2-4-20-4zm163.6-45.3h56.8v192.2h-56.8zm28.6-97.2q6.7 0 12.2 2.6 6 2.6 10 7 4.5 4.1 7.1 10 2.6 6 2.6 12.7 0 6.6-2.6 12.6-2.6 5.5-7.1 10-4 4.1-10 6.7-5.5 2.6-12.2 2.6-6.7 0-12.6-2.6-5.6-2.6-10-6.7-4.5-4.5-7.1-10-2.2-6-2.2-12.6 0-13.4 9.3-22.7 9.2-9.6 22.6-9.6z"/>
</svg>